<svg xmlns="http://www.w3.org/2000/svg" width="16" height="22"><path class="icons" fill="#002766" d="M15.13 17.003a.75.75 0 01.75.75v.75a.188.188 0 01-.188.187H10.63a2.627 2.627 0 01-2.625 2.625A2.627 2.627 0 015.38 18.69H.318a.188.188 0 01-.188-.188v-.75a.75.75 0 01.75-.75h.563V9.035A6.561 6.561 0 017.068 2.54v-.911a.937.937 0 111.875 0v.911a6.561 6.561 0 015.625 6.495v7.969zm-6 1.687H6.88a1.125 1.125 0 002.25 0zm3.75-1.688V9.035a4.842 4.842 0 00-1.427-3.448A4.841 4.841 0 008.005 4.16a4.841 4.841 0 00-3.448 1.427A4.841 4.841 0 003.13 9.034v7.969z"/></svg>