<svg class="icons" xmlns="http://www.w3.org/2000/svg" width="18" height="20"><path fill="#002766" d="M17.908 16.09c.103 0 .187.085.187.188v1.125a.188.188 0 01-.187.188h-1.875v1.874a.188.188 0 01-.188.188H14.72a.188.188 0 01-.187-.188V17.59h-1.875a.188.188 0 01-.188-.187v-1.125a.19.19 0 01.188-.188h1.875v-1.875c0-.103.084-.187.187-.187h1.125c.103 0 .188.084.188.187v1.875zM5.618 9.884a5.292 5.292 0 00-2.455 1.4A5.297 5.297 0 001.6 14.88a.187.187 0 01-.188.18H.098a.184.184 0 01-.135-.056.187.187 0 01-.053-.136 6.97 6.97 0 012.058-4.78 7.046 7.046 0 012.027-1.416 4.677 4.677 0 01-1.739-3.645C2.256 2.431 4.422.301 7.02.341a4.696 4.696 0 014.118 2.575.188.188 0 01-.148.272 5.815 5.815 0 00-1.296.29.187.187 0 01-.218-.074A2.996 2.996 0 006.98 2.026a2.984 2.984 0 00-2.184.907 2.984 2.984 0 00-.851 2.006 2.99 2.99 0 00.907 2.236c.253.248.546.445.865.588a.189.189 0 01.105.206 5.965 5.965 0 00-.068 1.71.192.192 0 01-.138.205zm6.008 3.863c-1.43 0-2.77.555-3.78 1.565a5.298 5.298 0 00-1.563 3.598.187.187 0 01-.188.18H4.783a.184.184 0 01-.135-.056.188.188 0 01-.053-.136 6.97 6.97 0 012.058-4.779 7.053 7.053 0 012.025-1.415 4.684 4.684 0 01-1.739-3.645c0-2.597 2.163-4.727 4.76-4.687a4.688 4.688 0 01-.073 9.375zm3.003-4.688a2.98 2.98 0 00-.9-2.142 3.017 3.017 0 00-2.133-.858 3.004 3.004 0 00-2.748 4.134c.15.37.374.706.657.987.568.568 1.32.88 2.122.88.801 0 1.553-.312 2.12-.88a2.99 2.99 0 00.882-2.12z"/></svg>