<svg class="icons" xmlns="http://www.w3.org/2000/svg" width="22" height="22"><path fill="#002766" d="M21.5 11c0 5.798-4.702 10.5-10.5 10.5S.5 16.798.5 11 5.202.5 11 .5 21.5 5.202 21.5 11zm-1.781 0A8.72 8.72 0 0011 2.281 8.72 8.72 0 002.281 11 8.72 8.72 0 0011 19.719 8.72 8.72 0 0019.719 11z"/><path fill="#002766" d="M9.88 6.875a1.125 1.125 0 102.25 0 1.125 1.125 0 00-2.25 0zm.563 2.625a.188.188 0 00-.188.188v6.374c0 .104.084.188.188.188h1.125a.188.188 0 00.187-.188V9.688a.188.188 0 00-.188-.187z"/></svg>