<svg class="icons" xmlns="http://www.w3.org/2000/svg" width="22" height="22"><path fill="#002766" d="M10.205 10.204a1.125 1.125 0 111.59 1.592 1.125 1.125 0 01-1.59-1.591zm4.687 0a1.125 1.125 0 111.591 1.592 1.125 1.125 0 01-1.59-1.591zm-9.375 0a1.125 1.125 0 111.591 1.592 1.125 1.125 0 01-1.59-1.591zm15.168-3.273c.546 1.303.822 2.689.815 4.116a10.473 10.473 0 01-3.103 7.418 10.417 10.417 0 01-3.347 2.231 10.507 10.507 0 01-4.048.804h-.049a10.533 10.533 0 01-4.685-1.125H2.703a1.078 1.078 0 01-1.078-1.078v-3.563A10.533 10.533 0 01.5 11.05c-.007-1.42.265-2.8.804-4.099a10.405 10.405 0 012.231-3.347A10.476 10.476 0 0110.953.5H11c1.411 0 2.78.274 4.069.816a10.505 10.505 0 015.616 5.616zm-.961 4.109a8.683 8.683 0 00-2.553-6.206 8.662 8.662 0 00-2.789-1.875 8.677 8.677 0 00-3.38-.678h-.04a8.653 8.653 0 00-6.159 2.576 8.665 8.665 0 00-2.522 6.183 8.75 8.75 0 001.02 4.057l.105.197v3.3h3.3l.197.105a8.75 8.75 0 004.057 1.02H11c2.32 0 4.5-.896 6.143-2.522a8.686 8.686 0 002.58-6.157z"/></svg>