<svg xmlns="http://www.w3.org/2000/svg" width="14" height="14"><path fill="#8c8c8c" d="M13.213 12.352a.13.13 0 01.027.14.129.129 0 01-.028.04l-.68.68a.128.128 0 01-.182 0L8.292 9.156a4.65 4.65 0 01-2.854.969 4.65 4.65 0 01-3.315-1.373A4.66 4.66 0 01.75 5.437a4.65 4.65 0 011.373-3.314A4.66 4.66 0 015.438.75c1.251 0 2.43.487 3.314 1.373a4.66 4.66 0 011.373 3.314c0 1.047-.34 2.043-.97 2.857zM8.938 5.437c0-.934-.365-1.812-1.026-2.475a3.472 3.472 0 00-2.475-1.025c-.934 0-1.812.365-2.475 1.025a3.478 3.478 0 00-1.025 2.475c0 .935.365 1.813 1.025 2.475a3.481 3.481 0 002.475 1.025c.935 0 1.813-.364 2.475-1.024a3.478 3.478 0 001.025-2.476z"/></svg>